<svg width="32" height="32" viewBox="0 0 32 32" fill="none" xmlns="http://www.w3.org/2000/svg">
<g clip-path="url(#clip0_6_270)">
<path d="M16 32C24.4569 32 31.3125 24.8366 31.3125 16C31.3125 7.16344 24.4569 0 16 0C7.54314 0 0.6875 7.16344 0.6875 16C0.6875 24.8366 7.54314 32 16 32Z" fill="#E88102"/>
<path d="M16 30.3125C24.3706 30.3125 31.1562 23.5268 31.1562 15.1562C31.1562 6.78568 24.3706 0 16 0C7.62943 0 0.84375 6.78568 0.84375 15.1562C0.84375 23.5268 7.62943 30.3125 16 30.3125Z" fill="#FDD835"/>
<path d="M22.05 1.25626L2.1 21.2C1.43125 19.6688 1.0125 18.0063 0.887497 16.2625L17.1062 0.0375061C18.85 0.168756 20.5125 0.587506 22.05 1.25626ZM29.2062 7.71876L8.5625 28.3625C7.275 27.6375 6.1125 26.7313 5.09375 25.675L26.525 4.25001C27.575 5.26251 28.4812 6.43126 29.2062 7.71876ZM25.9062 3.68126L4.53125 25.0563C4.2 24.6688 3.88125 24.2625 3.5875 23.8438L24.6937 2.73751C25.1125 3.03126 25.5187 3.35001 25.9062 3.68126ZM30.6812 11.375L12.2187 29.8375C11.6625 29.6938 11.1187 29.5188 10.5875 29.3188L30.1625 9.74375C30.3625 10.275 30.5375 10.8188 30.6812 11.375Z" fill="white" fill-opacity="0.313726"/>
<path d="M31.1562 15.1562C31.1562 15.2625 31.1562 15.3625 31.15 15.4688C30.9875 7.24375 24.2687 0.625 16 0.625C7.73125 0.625 1.0125 7.24375 0.85 15.4688C0.85 15.3625 0.84375 15.2625 0.84375 15.1562C0.84375 6.7875 7.63125 0 16 0C24.3687 0 31.1562 6.7875 31.1562 15.1562Z" fill="white" fill-opacity="0.313726"/>
<path d="M28.3125 15.8125C28.3125 22.3687 22.9937 27.6875 16.4375 27.6875C12.7562 27.6875 9.4625 26.0063 7.28125 23.375C9.45 25.7188 12.55 27.1875 16 27.1875C22.5562 27.1875 27.875 21.8687 27.875 15.3125C27.875 12.4375 26.8563 9.80625 25.1562 7.75C27.1125 9.86875 28.3125 12.7 28.3125 15.8125Z" fill="white" fill-opacity="0.313726"/>
<path d="M16 27.1875C22.5584 27.1875 27.875 21.8709 27.875 15.3125C27.875 8.75412 22.5584 3.4375 16 3.4375C9.44162 3.4375 4.125 8.75412 4.125 15.3125C4.125 21.8709 9.44162 27.1875 16 27.1875Z" fill="#F39E09"/>
<path d="M25 7.5625C22.9188 5.76875 20.2125 4.6875 17.25 4.6875C10.6937 4.6875 5.375 10.0062 5.375 16.5625C5.375 19.525 6.45625 22.2313 8.25 24.3125C5.725 22.1313 4.125 18.9125 4.125 15.3125C4.125 8.75625 9.44375 3.4375 16 3.4375C19.5938 3.4375 22.8188 5.0375 25 7.5625Z" fill="#E88102"/>
<path d="M22.0938 17.4188L21.9875 17.4813C21.7125 16.4313 20.925 15.8875 19.8375 15.625C20.675 15.2 21.2188 14.4688 21.1875 13.2937V12.425L21.0625 12.4625C20.65 11.0375 19.1875 10.525 17.3875 10.3687V7.8125H15.8313V10.3C15.425 10.3 15.0063 10.3063 14.5875 10.3188V7.8125H13.0313V10.3687C12.6938 10.375 12.3625 10.3813 12.0375 10.3813V10.375H9.89375V12.0375C9.89375 12.0375 11.0438 12.0125 11.025 12.0375C11.6563 12.0375 11.8625 12.4062 11.9188 12.7188V15.625C11.9625 15.625 12.0188 15.625 12.0813 15.6375H11.9188V19.7188C11.8938 19.9187 11.775 20.2313 11.3313 20.2313C11.35 20.25 10.2 20.2313 10.2 20.2313L10.0563 21.1L9.89375 21.15V22.0875H11.9188C12.2938 22.0875 12.6688 22.0938 13.0313 22.0938V24.6875H14.5875V22.1313C15.0125 22.1375 15.425 22.1437 15.8313 22.1437V24.6875H17.3875V22.1063C20.0063 21.9563 21.8375 21.2937 22.0625 18.8438C22.075 18.7063 22.0813 18.575 22.0875 18.4438V17.4188H22.0938ZM14.6375 12.1438C15.5188 12.1438 18.275 11.8625 18.275 13.7C18.275 15.4562 15.5188 15.25 14.6375 15.2563V12.1438ZM14.6375 20.25V16.825C15.6938 16.825 19 16.5188 19 18.5375C19 20.4688 15.6875 20.2437 14.6375 20.25Z" fill="#DB6704"/>
<path d="M21.175 12.0688C21 10.225 19.4062 9.60625 17.4 9.43125V6.875H15.8437V9.3625C15.4375 9.3625 15.0188 9.36875 14.6 9.38125V6.875H13.0437V9.43125C12.7062 9.4375 12.375 9.44375 12.05 9.44375V9.4375H9.90625V11.1C9.90625 11.1 11.0563 11.075 11.0375 11.1C11.6688 11.1 11.875 11.4688 11.9312 11.7812V14.6875C11.975 14.6875 12.0312 14.6875 12.0937 14.7H11.9312V18.7812C11.9062 18.9812 11.7875 19.2938 11.3437 19.2938C11.3625 19.3125 10.2125 19.2938 10.2125 19.2938L9.90625 21.15H11.9312C12.3062 21.15 12.6812 21.1562 13.0437 21.1562V23.75H14.6V21.1938C15.025 21.2 15.4375 21.2062 15.8437 21.2062V23.75H17.4V21.1688C20.0187 21.0188 21.85 20.3562 22.075 17.9062C22.2563 15.9312 21.325 15.0437 19.8437 14.6875C20.7437 14.225 21.3062 13.4188 21.175 12.0688ZM19 17.5938C19 19.525 15.6937 19.3062 14.6375 19.3062V15.8813C15.6875 15.8813 19 15.5813 19 17.5938ZM18.275 12.7625C18.275 14.5187 15.5187 14.3125 14.6375 14.3188V11.2125C15.5125 11.2125 18.275 10.9312 18.275 12.7625Z" fill="#FDD835"/>
<path d="M13.0437 6.875H14.6V8.7L11.825 11.475C11.7062 11.2625 11.4688 11.0938 11.0375 11.0938C11.0563 11.075 9.90625 11.0938 9.90625 11.0938V9.4375H12.05V9.44375C12.375 9.44375 12.7062 9.4375 13.0437 9.43125V6.875ZM16.425 6.875L15.8375 7.4625V6.875H16.425ZM17.9687 18.9562L15.725 21.2C15.3563 21.2 14.9875 21.1938 14.6 21.1875V22.325L13.175 23.75H13.0437V21.1625C12.6812 21.1625 12.3062 21.1562 11.9312 21.1562H9.90625L9.9625 20.8125L11.4875 19.2875C11.7688 19.2375 11.8812 19.025 11.9187 18.8563L14.6375 16.1375V19.3125C15.3062 19.3125 16.9062 19.4 17.9687 18.9562ZM18.95 17.975C18.9812 17.8563 19 17.7312 19 17.5938C19 15.7188 16.1437 15.85 14.8937 15.875L16.5312 14.2375C17.4312 14.1 18.275 13.725 18.275 12.7563C18.275 12.6688 18.2688 12.5875 18.2562 12.5125L20.3625 10.4062C20.8125 10.8 21.1062 11.3375 21.175 12.0625C21.3062 13.4125 20.7437 14.2187 19.8375 14.6812C20.4875 14.8375 21.0312 15.0938 21.4187 15.5L18.95 17.975ZM10.2125 19.3H10.2875L10.2 19.3875L10.2125 19.3ZM14.6375 14.3188C14.7937 14.3188 15.0125 14.325 15.2687 14.325L11.9375 17.6562V15.5L14.6437 12.7937L14.6375 14.3188ZM19.6375 9.95L17.8312 11.7563C17.4312 11.4125 16.8125 11.275 16.2062 11.225L17.9375 9.49375C18.575 9.58125 19.15 9.71875 19.6375 9.95ZM16.15 23.75L17.3937 22.5063V23.75H16.15ZM22.075 17.825C22.075 17.85 22.0687 17.8813 22.0687 17.9062C21.8875 19.8562 20.6937 20.675 18.8937 21.0063L22.075 17.825Z" fill="white" fill-opacity="0.313726"/>
<path d="M25.9062 8.75625C18.2188 11.4563 12.0438 17.3875 9.01875 24.9188C8.75625 24.725 8.5 24.525 8.25 24.3063C6.45625 22.225 5.375 19.5188 5.375 16.5625C5.375 10.0063 10.6937 4.6875 17.25 4.6875C20.2125 4.6875 22.9187 5.76875 24.9937 7.5625C25.325 7.94375 25.625 8.34375 25.9062 8.75625Z" fill="white" fill-opacity="0.145098"/>
</g>
<defs>
<clipPath id="clip0_6_270">
<rect width="32" height="32" fill="white"/>
</clipPath>
</defs>
</svg>
