<svg width="72" height="72" viewBox="0 0 72 72" fill="none" xmlns="http://www.w3.org/2000/svg">
<path d="M36 72C55.0279 72 70.4531 55.8823 70.4531 36C70.4531 16.1177 55.0279 0 36 0C16.9721 0 1.54688 16.1177 1.54688 36C1.54688 55.8823 16.9721 72 36 72Z" fill="#E88102"/>
<path d="M36 68.2031C54.8338 68.2031 70.1016 52.9353 70.1016 34.1016C70.1016 15.2678 54.8338 0 36 0C17.1662 0 1.89844 15.2678 1.89844 34.1016C1.89844 52.9353 17.1662 68.2031 36 68.2031Z" fill="#FDD835"/>
<path d="M49.6124 2.82654L4.72495 47.7C3.22026 44.2547 2.27808 40.514 1.99683 36.5906L38.489 0.0843506C42.4125 0.379663 46.1531 1.32185 49.6124 2.82654ZM65.714 17.3672L19.2656 63.8156C16.3687 62.1843 13.7531 60.1453 11.4609 57.7687L59.6812 9.56248C62.0437 11.8406 64.0828 14.4703 65.714 17.3672ZM58.289 8.28279L10.1953 56.3765C9.44995 55.5047 8.73276 54.5906 8.07183 53.6484L55.5609 6.15935C56.5031 6.82029 57.4171 7.53748 58.289 8.28279ZM69.0328 25.5937L27.4921 67.1343C26.2406 66.8109 25.0171 66.4172 23.8218 65.9672L67.8656 21.9234C68.3156 23.1187 68.7093 24.3422 69.0328 25.5937Z" fill="white" fill-opacity="0.313726"/>
<path d="M70.1016 34.1016C70.1016 34.3406 70.1016 34.5656 70.0875 34.8047C69.7219 16.2984 54.6047 1.40625 36 1.40625C17.3953 1.40625 2.27813 16.2984 1.9125 34.8047C1.9125 34.5656 1.89844 34.3406 1.89844 34.1016C1.89844 15.2719 17.1703 0 36 0C54.8297 0 70.1016 15.2719 70.1016 34.1016Z" fill="white" fill-opacity="0.313726"/>
<path d="M63.7031 35.5781C63.7031 50.3297 51.7359 62.2969 36.9844 62.2969C28.7016 62.2969 21.2906 58.5141 16.3828 52.5938C21.2625 57.8672 28.2375 61.1719 36 61.1719C50.7516 61.1719 62.7188 49.2047 62.7188 34.4531C62.7188 27.9844 60.4266 22.0641 56.6016 17.4375C61.0031 22.2047 63.7031 28.575 63.7031 35.5781Z" fill="white" fill-opacity="0.313726"/>
<path d="M36 61.1719C50.7564 61.1719 62.7188 49.2095 62.7188 34.4531C62.7188 19.6968 50.7564 7.73438 36 7.73438C21.2436 7.73438 9.28125 19.6968 9.28125 34.4531C9.28125 49.2095 21.2436 61.1719 36 61.1719Z" fill="#F39E09"/>
<path d="M56.25 17.0156C51.5672 12.9797 45.4781 10.5469 38.8125 10.5469C24.0609 10.5469 12.0938 22.5141 12.0938 37.2656C12.0938 43.9313 14.5266 50.0203 18.5625 54.7031C12.8812 49.7953 9.28125 42.5531 9.28125 34.4531C9.28125 19.7016 21.2484 7.73438 36 7.73438C44.0859 7.73438 51.3422 11.3344 56.25 17.0156Z" fill="#E88102"/>
<path d="M49.711 39.1922L49.4719 39.3328C48.8532 36.9703 47.0813 35.7469 44.6344 35.1562C46.5188 34.2 47.7422 32.5547 47.6719 29.9109V27.9563L47.3907 28.0406C46.4625 24.8344 43.1719 23.6812 39.1219 23.3297V17.5781H35.6204V23.175C34.7063 23.175 33.7641 23.1891 32.8219 23.2172V17.5781H29.3204V23.3297C28.561 23.3437 27.8157 23.3578 27.0844 23.3578V23.3438H22.261V27.0844C22.261 27.0844 24.8485 27.0281 24.8063 27.0844C26.2266 27.0844 26.6907 27.9141 26.8172 28.6172V35.1562C26.9157 35.1562 27.0422 35.1562 27.1829 35.1844H26.8172V44.3672C26.761 44.8172 26.4938 45.5203 25.4954 45.5203C25.5375 45.5625 22.95 45.5203 22.95 45.5203L22.6266 47.475L22.261 47.5875V49.6969H26.8172C27.661 49.6969 28.5047 49.7109 29.3204 49.7109V55.5469H32.8219V49.7953C33.7782 49.8094 34.7063 49.8234 35.6204 49.8234V55.5469H39.1219V49.7391C45.0141 49.4016 49.1344 47.9109 49.6407 42.3984C49.6688 42.0891 49.6829 41.7938 49.6969 41.4984V39.1922H49.711ZM32.9344 27.3234C34.9172 27.3234 41.1188 26.6906 41.1188 30.825C41.1188 34.7766 34.9172 34.3125 32.9344 34.3266V27.3234ZM32.9344 45.5625V37.8563C35.311 37.8563 42.75 37.1672 42.75 41.7094C42.75 46.0547 35.2969 45.5484 32.9344 45.5625Z" fill="#DB6704"/>
<path d="M47.6437 27.1547C47.25 23.0063 43.6641 21.6141 39.15 21.2203V15.4688H35.6484V21.0656C34.7344 21.0656 33.7922 21.0797 32.85 21.1078V15.4688H29.3484V21.2203C28.5891 21.2344 27.8438 21.2484 27.1125 21.2484V21.2344H22.2891V24.975C22.2891 24.975 24.8766 24.9188 24.8344 24.975C26.2547 24.975 26.7187 25.8047 26.8453 26.5078V33.0469C26.9437 33.0469 27.0703 33.0469 27.2109 33.075H26.8453V42.2578C26.7891 42.7078 26.5219 43.4109 25.5234 43.4109C25.5656 43.4531 22.9781 43.4109 22.9781 43.4109L22.2891 47.5875H26.8453C27.6891 47.5875 28.5328 47.6016 29.3484 47.6016V53.4375H32.85V47.6859C33.8063 47.7 34.7344 47.7141 35.6484 47.7141V53.4375H39.15V47.6297C45.0422 47.2922 49.1625 45.8016 49.6688 40.2891C50.0766 35.8453 47.9813 33.8484 44.6484 33.0469C46.6734 32.0063 47.9391 30.1922 47.6437 27.1547ZM42.75 39.5859C42.75 43.9312 35.3109 43.4391 32.9344 43.4391V35.7328C35.2969 35.7328 42.75 35.0578 42.75 39.5859ZM41.1187 28.7156C41.1187 32.6672 34.9172 32.2031 32.9344 32.2172V25.2281C34.9031 25.2281 41.1187 24.5953 41.1187 28.7156Z" fill="#FDD835"/>
<path d="M29.3484 15.4688H32.85V19.575L26.6062 25.8188C26.3391 25.3406 25.8047 24.9609 24.8344 24.9609C24.8766 24.9187 22.2891 24.9609 22.2891 24.9609V21.2344H27.1125V21.2484C27.8438 21.2484 28.5891 21.2344 29.3484 21.2203V15.4688ZM36.9562 15.4688L35.6344 16.7906V15.4688H36.9562ZM40.4297 42.6516L35.3813 47.7C34.5516 47.7 33.7219 47.6859 32.85 47.6719V50.2313L29.6438 53.4375H29.3484V47.6156C28.5328 47.6156 27.6891 47.6016 26.8453 47.6016H22.2891L22.4156 46.8281L25.8469 43.3969C26.4797 43.2844 26.7328 42.8063 26.8172 42.4266L32.9344 36.3094V43.4531C34.4391 43.4531 38.0391 43.65 40.4297 42.6516ZM42.6375 40.4438C42.7078 40.1766 42.75 39.8953 42.75 39.5859C42.75 35.3672 36.3234 35.6625 33.5109 35.7188L37.1953 32.0344C39.2203 31.725 41.1187 30.8813 41.1187 28.7016C41.1187 28.5047 41.1047 28.3219 41.0766 28.1531L45.8156 23.4141C46.8281 24.3 47.4891 25.5094 47.6437 27.1406C47.9391 30.1781 46.6734 31.9922 44.6344 33.0328C46.0969 33.3844 47.3203 33.9609 48.1922 34.875L42.6375 40.4438ZM22.9781 43.425H23.1469L22.95 43.6219L22.9781 43.425ZM32.9344 32.2172C33.2859 32.2172 33.7781 32.2312 34.3547 32.2312L26.8594 39.7266V34.875L32.9484 28.7859L32.9344 32.2172ZM44.1844 22.3875L40.1203 26.4516C39.2203 25.6781 37.8281 25.3688 36.4641 25.2563L40.3594 21.3609C41.7938 21.5578 43.0875 21.8672 44.1844 22.3875ZM36.3375 53.4375L39.1359 50.6391V53.4375H36.3375ZM49.6688 40.1063C49.6688 40.1625 49.6547 40.2328 49.6547 40.2891C49.2469 44.6766 46.5609 46.5188 42.5109 47.2641L49.6688 40.1063Z" fill="white" fill-opacity="0.313726"/>
<path d="M58.2891 19.7016C40.9922 25.7766 27.0984 39.1219 20.2922 56.0672C19.7016 55.6313 19.125 55.1813 18.5625 54.6891C14.5266 50.0063 12.0938 43.9172 12.0938 37.2656C12.0938 22.5141 24.0609 10.5469 38.8125 10.5469C45.4781 10.5469 51.5672 12.9797 56.2359 17.0156C56.9813 17.8734 57.6562 18.7734 58.2891 19.7016Z" fill="white" fill-opacity="0.145098"/>
</svg>
