<svg width="54" height="57" viewBox="0 0 54 57" fill="none" xmlns="http://www.w3.org/2000/svg">
<path d="M27 56.5C41.7995 56.5 53.7969 43.964 53.7969 28.5C53.7969 13.036 41.7995 0.5 27 0.5C12.2005 0.5 0.203125 13.036 0.203125 28.5C0.203125 43.964 12.2005 56.5 27 56.5Z" fill="#E88102"/>
<path d="M27 53.5469C41.6485 53.5469 53.5234 41.6719 53.5234 27.0234C53.5234 12.3749 41.6485 0.5 27 0.5C12.3515 0.5 0.476562 12.3749 0.476562 27.0234C0.476562 41.6719 12.3515 53.5469 27 53.5469Z" fill="#FDD835"/>
<path d="M37.5876 2.69849L2.6751 37.6C1.50479 34.9204 0.771973 32.011 0.553223 28.9594L28.936 0.565674C31.9876 0.795361 34.897 1.52817 37.5876 2.69849ZM50.111 14.0079L13.9845 50.1344C11.7313 48.8657 9.69697 47.2797 7.91416 45.4313L45.4188 7.93755C47.2564 9.70942 48.8423 11.7547 50.111 14.0079ZM44.336 6.94224L6.92979 44.3485C6.3501 43.6704 5.79229 42.9594 5.27822 42.2266L42.2142 5.29067C42.947 5.80474 43.6579 6.36255 44.336 6.94224ZM52.6923 20.4063L20.3829 52.7157C19.4095 52.4641 18.4579 52.1579 17.5282 51.8079L51.7845 17.5516C52.1345 18.4813 52.4407 19.4329 52.6923 20.4063Z" fill="white" fill-opacity="0.313726"/>
<path d="M53.5234 27.0234C53.5234 27.2094 53.5234 27.3844 53.5125 27.5703C53.2281 13.1766 41.4703 1.59375 27 1.59375C12.5297 1.59375 0.771875 13.1766 0.4875 27.5703C0.4875 27.3844 0.476562 27.2094 0.476562 27.0234C0.476562 12.3781 12.3547 0.5 27 0.5C41.6453 0.5 53.5234 12.3781 53.5234 27.0234Z" fill="white" fill-opacity="0.313726"/>
<path d="M48.5469 28.1719C48.5469 39.6453 39.2391 48.9531 27.7656 48.9531C21.3234 48.9531 15.5594 46.0109 11.7422 41.4062C15.5375 45.5078 20.9625 48.0781 27 48.0781C38.4734 48.0781 47.7812 38.7703 47.7812 27.2969C47.7812 22.2656 45.9984 17.6609 43.0234 14.0625C46.4469 17.7703 48.5469 22.725 48.5469 28.1719Z" fill="white" fill-opacity="0.313726"/>
<path d="M27 48.0781C38.4772 48.0781 47.7812 38.774 47.7812 27.2969C47.7812 15.8197 38.4772 6.51562 27 6.51562C15.5228 6.51562 6.21875 15.8197 6.21875 27.2969C6.21875 38.774 15.5228 48.0781 27 48.0781Z" fill="#F39E09"/>
<path d="M42.75 13.7344C39.1078 10.5953 34.3719 8.70312 29.1875 8.70312C17.7141 8.70312 8.40625 18.0109 8.40625 29.4844C8.40625 34.6688 10.2984 39.4047 13.4375 43.0469C9.01875 39.2297 6.21875 33.5969 6.21875 27.2969C6.21875 15.8234 15.5266 6.51562 27 6.51562C33.2891 6.51562 38.9328 9.31562 42.75 13.7344Z" fill="#E88102"/>
<path d="M37.664 30.9828L37.478 31.0922C36.9968 29.2547 35.6187 28.3031 33.7155 27.8438C35.1812 27.1 36.1327 25.8203 36.078 23.7641V22.2438L35.8593 22.3094C35.1374 19.8156 32.578 18.9187 29.428 18.6453V14.1719H26.7046V18.525C25.9937 18.525 25.2608 18.5359 24.528 18.5578V14.1719H21.8046V18.6453C21.214 18.6562 20.6343 18.6672 20.0655 18.6672V18.6562H16.314V21.5656C16.314 21.5656 18.3265 21.5219 18.2937 21.5656C19.3983 21.5656 19.7593 22.2109 19.8577 22.7578V27.8438C19.9343 27.8438 20.0327 27.8438 20.1421 27.8656H19.8577V35.0078C19.814 35.3578 19.6062 35.9047 18.8296 35.9047C18.8624 35.9375 16.8499 35.9047 16.8499 35.9047L16.5983 37.425L16.314 37.5125V39.1531H19.8577C20.514 39.1531 21.1702 39.1641 21.8046 39.1641V43.7031H24.528V39.2297C25.2718 39.2406 25.9937 39.2516 26.7046 39.2516V43.7031H29.428V39.1859C34.0108 38.9234 37.2155 37.7641 37.6093 33.4766C37.6312 33.2359 37.6421 33.0063 37.653 32.7766V30.9828H37.664ZM24.6155 21.7516C26.1577 21.7516 30.9812 21.2594 30.9812 24.475C30.9812 27.5484 26.1577 27.1875 24.6155 27.1984V21.7516ZM24.6155 35.9375V29.9438C26.464 29.9438 32.2499 29.4078 32.2499 32.9406C32.2499 36.3203 26.453 35.9266 24.6155 35.9375Z" fill="#DB6704"/>
<path d="M36.0562 21.6203C35.75 18.3938 32.9609 17.3109 29.45 17.0047V12.5312H26.7266V16.8844C26.0156 16.8844 25.2828 16.8953 24.55 16.9172V12.5312H21.8266V17.0047C21.2359 17.0156 20.6562 17.0266 20.0875 17.0266V17.0156H16.3359V19.925C16.3359 19.925 18.3484 19.8813 18.3156 19.925C19.4203 19.925 19.7812 20.5703 19.8797 21.1172V26.2031C19.9562 26.2031 20.0547 26.2031 20.1641 26.225H19.8797V33.3672C19.8359 33.7172 19.6281 34.2641 18.8516 34.2641C18.8844 34.2969 16.8719 34.2641 16.8719 34.2641L16.3359 37.5125H19.8797C20.5359 37.5125 21.1922 37.5234 21.8266 37.5234V42.0625H24.55V37.5891C25.2937 37.6 26.0156 37.6109 26.7266 37.6109V42.0625H29.45V37.5453C34.0328 37.2828 37.2375 36.1234 37.6312 31.8359C37.9484 28.3797 36.3187 26.8266 33.7266 26.2031C35.3016 25.3937 36.2859 23.9828 36.0562 21.6203ZM32.25 31.2891C32.25 34.6687 26.4641 34.2859 24.6156 34.2859V28.2922C26.4531 28.2922 32.25 27.7672 32.25 31.2891ZM30.9812 22.8344C30.9812 25.9078 26.1578 25.5469 24.6156 25.5578V20.1219C26.1469 20.1219 30.9812 19.6297 30.9812 22.8344Z" fill="#FDD835"/>
<path d="M21.8266 12.5312H24.55V15.725L19.6937 20.5813C19.4859 20.2094 19.0703 19.9141 18.3156 19.9141C18.3484 19.8812 16.3359 19.9141 16.3359 19.9141V17.0156H20.0875V17.0266C20.6562 17.0266 21.2359 17.0156 21.8266 17.0047V12.5312ZM27.7437 12.5312L26.7156 13.5594V12.5312H27.7437ZM30.4453 33.6734L26.5187 37.6C25.8734 37.6 25.2281 37.5891 24.55 37.5781V39.5688L22.0562 42.0625H21.8266V37.5344C21.1922 37.5344 20.5359 37.5234 19.8797 37.5234H16.3359L16.4344 36.9219L19.1031 34.2531C19.5953 34.1656 19.7922 33.7938 19.8578 33.4984L24.6156 28.7406V34.2969C25.7859 34.2969 28.5859 34.45 30.4453 33.6734ZM32.1625 31.9563C32.2172 31.7484 32.25 31.5297 32.25 31.2891C32.25 28.0078 27.2516 28.2375 25.0641 28.2812L27.9297 25.4156C29.5047 25.175 30.9812 24.5188 30.9812 22.8234C30.9812 22.6703 30.9703 22.5281 30.9484 22.3969L34.6344 18.7109C35.4219 19.4 35.9359 20.3406 36.0562 21.6094C36.2859 23.9719 35.3016 25.3828 33.7156 26.1922C34.8531 26.4656 35.8047 26.9141 36.4828 27.625L32.1625 31.9563ZM16.8719 34.275H17.0031L16.85 34.4281L16.8719 34.275ZM24.6156 25.5578C24.8891 25.5578 25.2719 25.5687 25.7203 25.5687L19.8906 31.3984V27.625L24.6266 22.8891L24.6156 25.5578ZM33.3656 17.9125L30.2047 21.0734C29.5047 20.4719 28.4219 20.2313 27.3609 20.1438L30.3906 17.1141C31.5062 17.2672 32.5125 17.5078 33.3656 17.9125ZM27.2625 42.0625L29.4391 39.8859V42.0625H27.2625ZM37.6312 31.6938C37.6312 31.7375 37.6203 31.7922 37.6203 31.8359C37.3031 35.2484 35.2141 36.6813 32.0641 37.2609L37.6312 31.6938Z" fill="white" fill-opacity="0.313726"/>
<path d="M44.3359 15.8234C30.8828 20.5484 20.0766 30.9281 14.7828 44.1078C14.3234 43.7688 13.875 43.4188 13.4375 43.0359C10.2984 39.3937 8.40625 34.6578 8.40625 29.4844C8.40625 18.0109 17.7141 8.70312 29.1875 8.70312C34.3719 8.70312 39.1078 10.5953 42.7391 13.7344C43.3187 14.4016 43.8438 15.1016 44.3359 15.8234Z" fill="white" fill-opacity="0.145098"/>
</svg>
